<svg width="199" height="37" viewBox="0 0 199 37" fill="none" xmlns="http://www.w3.org/2000/svg">
<path d="M18.8225 16.6376H9.05507V26.4051H19.6365V16.6376H27.369V34.5446H1.32251V8.90508H18.8225V16.6376Z" fill="#0A232E"/>
<path d="M28.183 0.765549H36.3225V8.09113H28.183V0.765549Z" fill="#0A232E"/>
<path d="M18.8225 16.6376H9.05507V26.4051H19.6365V16.6376H27.369V34.5446H1.32251V8.90508H18.8225V16.6376Z" stroke="#0A232E" stroke-width="0.813954"/>
<path d="M28.183 0.765549H36.3225V8.09113H28.183V0.765549Z" stroke="#0A232E" stroke-width="0.813954"/>
<path d="M47.2163 25.4575H40.0413V32.5H36.9946V16.0747H48.6513V18.7019H40.0413V22.9186H47.2163V25.4575Z" fill="#0A232E"/>
<path d="M52.0696 15.9643C52.9527 15.9643 53.615 16.6487 53.615 17.5318C53.615 18.437 52.9527 19.0772 52.0696 19.0772C51.1865 19.0772 50.5242 18.437 50.5242 17.5318C50.5242 16.6487 51.1865 15.9643 52.0696 15.9643ZM50.6788 32.5V20.7109H53.4826V32.5H50.6788Z" fill="#0A232E"/>
<path d="M55.164 32.5L59.447 26.3185L55.6277 20.7109H58.8509L60.021 22.5654C60.5067 23.3601 61.1248 24.6627 61.1248 24.6627H61.169C61.169 24.6627 61.8092 23.3381 62.2729 22.5654L63.465 20.7109H66.4675L62.7365 26.186L67.0636 32.5H63.8182L62.2729 30.1378C61.7651 29.2989 61.0807 27.908 61.0807 27.908H61.0365C61.0365 27.908 60.3301 29.2989 59.8223 30.1378L58.2548 32.5H55.164Z" fill="#0A232E"/>
<path d="M69.0322 32.5V16.0747H73.0723L75.7657 23.89C76.406 25.8107 77.2007 29.4092 77.2007 29.4092H77.267C77.267 29.4092 78.0617 25.8328 78.6799 23.89L81.3291 16.0747H85.4575V32.5H82.6096V23.9341C82.6096 22.1459 82.8083 18.8123 82.8083 18.8123H82.7641C82.7641 18.8123 82.0798 21.8368 81.5499 23.4705L78.437 32.5H75.9644L72.8295 23.4705C72.2996 21.8368 71.6152 18.8123 71.6152 18.8123H71.5711C71.5711 18.8123 71.7698 22.1459 71.7698 23.9341V32.5H69.0322Z" fill="#0A232E"/>
<path d="M90.2883 36.5181C89.935 36.5181 88.4338 36.4518 88.2351 36.3856V34.1117H88.3897C88.5 34.1779 89.2727 34.222 89.5597 34.222C90.5091 34.222 91.0389 33.8688 91.2817 32.9195C91.2817 32.6987 91.3921 31.5949 91.1493 30.9546L87.0871 20.7109H90.0675L92.0103 26.186C92.5181 27.6431 93.0038 29.8508 93.0038 29.8508H93.0479C93.0479 29.8508 93.5778 27.621 94.0635 26.186L95.94 20.7109H98.7659L94.1959 33.1623C93.2245 35.7674 92.209 36.5181 90.2883 36.5181Z" fill="#0A232E"/>
<path d="M103.514 18.7019V23.8679H107.179C109.055 23.8679 110.027 22.8524 110.027 21.2628C110.027 19.607 109.011 18.7019 107.223 18.7019H103.514ZM107.664 26.3185H103.514V32.5H100.423V16.0747H107.532C109.386 16.0747 110.799 16.6266 111.704 17.6201C112.587 18.5694 113.095 19.7616 113.095 21.2187C113.095 24.3094 111.13 26.3185 107.664 26.3185Z" fill="#0A232E"/>
<path d="M117.709 26.5834V32.5H114.905V20.7109H117.62V22.8303H117.687C118.437 21.307 119.563 20.5343 121.064 20.5343C121.396 20.5343 121.616 20.5564 121.815 20.6447V23.1614H121.727C121.462 23.0952 121.241 23.0731 120.954 23.0731C119.1 23.0511 117.709 24.3094 117.709 26.5834Z" fill="#0A232E"/>
<path d="M128.589 22.4329C126.757 22.4329 125.807 23.6913 125.564 25.5458H131.437C131.327 23.603 130.289 22.4329 128.589 22.4329ZM134.108 29.1664C133.534 31.2858 131.636 32.8533 128.744 32.8533C124.99 32.8533 122.739 30.1157 122.739 26.6275C122.739 23.1173 125.101 20.4018 128.589 20.4018C130.311 20.4018 131.658 20.9979 132.651 22.0576C133.799 23.2718 134.351 25.1263 134.329 27.3119H125.52C125.719 29.343 126.823 30.7118 128.766 30.7118C130.112 30.7118 130.995 30.1378 131.371 29.1664H134.108Z" fill="#0A232E"/>
<path d="M141.017 32.8753C137.661 32.8753 135.718 31.2637 135.541 28.8794H138.235C138.456 30.2923 139.537 30.8884 141.039 30.8884C142.584 30.8884 143.313 30.2261 143.313 29.2768C143.313 28.1067 142.12 27.8859 140.266 27.5327C138.058 27.0912 135.961 26.5834 135.961 23.9121C135.961 21.6823 137.859 20.4018 140.619 20.4018C143.754 20.4018 145.322 21.8147 145.609 23.8679H142.937C142.739 22.8524 141.988 22.3004 140.597 22.3004C139.295 22.3004 138.61 22.8965 138.61 23.7134C138.61 24.751 139.824 24.9497 141.613 25.2808C143.842 25.7003 146.05 26.2302 146.05 29.1002C146.05 31.5728 143.931 32.8753 141.017 32.8753Z" fill="#0A232E"/>
<path d="M153.383 22.4329C151.55 22.4329 150.601 23.6913 150.358 25.5458H156.231C156.12 23.603 155.083 22.4329 153.383 22.4329ZM158.902 29.1664C158.328 31.2858 156.429 32.8533 153.537 32.8533C149.784 32.8533 147.532 30.1157 147.532 26.6275C147.532 23.1173 149.894 20.4018 153.383 20.4018C155.105 20.4018 156.451 20.9979 157.445 22.0576C158.593 23.2718 159.145 25.1263 159.123 27.3119H150.314C150.513 29.343 151.616 30.7118 153.559 30.7118C154.906 30.7118 155.789 30.1378 156.164 29.1664H158.902Z" fill="#0A232E"/>
<path d="M163.889 25.5899V32.5H161.086V20.7109H163.823V22.4329H163.889C164.662 21.1304 165.898 20.4018 167.554 20.4018C170.093 20.4018 171.616 21.9693 171.616 24.5081V32.5H168.813V24.9718C168.813 23.5809 167.996 22.7199 166.561 22.7199C164.993 22.7199 163.889 23.9121 163.889 25.5899Z" fill="#0A232E"/>
<path d="M179.473 32.8533C175.83 32.8533 173.49 30.1157 173.49 26.6275C173.49 23.1173 175.808 20.4018 179.429 20.4018C182.431 20.4018 184.33 22.1017 184.749 24.6406H182.012C181.747 23.3601 180.864 22.5433 179.451 22.5433C177.398 22.5433 176.338 24.2432 176.338 26.6275C176.338 28.9456 177.398 30.6676 179.451 30.6676C180.996 30.6676 181.923 29.7625 182.078 28.2171H184.815C184.639 30.9546 182.63 32.8533 179.473 32.8533Z" fill="#0A232E"/>
<path d="M191.91 22.4329C190.077 22.4329 189.128 23.6913 188.885 25.5458H194.758C194.647 23.603 193.61 22.4329 191.91 22.4329ZM197.429 29.1664C196.855 31.2858 194.956 32.8533 192.064 32.8533C188.311 32.8533 186.059 30.1157 186.059 26.6275C186.059 23.1173 188.421 20.4018 191.91 20.4018C193.632 20.4018 194.978 20.9979 195.972 22.0576C197.12 23.2718 197.672 25.1263 197.65 27.3119H188.841C189.04 29.343 190.143 30.7118 192.086 30.7118C193.433 30.7118 194.316 30.1378 194.691 29.1664H197.429Z" fill="#0A232E"/>
</svg>
