<svg width="18" height="18" viewBox="0 0 18 18" fill="none" xmlns="http://www.w3.org/2000/svg">
<path d="M2.3638 9.12462C2.9843 10.4989 4.04106 11.9876 5.26294 13.2095C6.5662 14.5128 8.00397 15.5449 9.31149 16.1152C10.0234 16.4259 10.6602 16.5812 11.1964 16.5812C11.7293 16.5812 12.1626 16.4274 12.4701 16.1197L13.7034 14.8868C14.0781 14.5117 14.0445 13.8683 13.6284 13.452L11.8111 11.6345C11.3946 11.2184 10.7507 11.185 10.3763 11.5597L9.81044 12.1255C9.65361 12.2428 8.6844 11.9443 7.59406 10.8539C6.50308 9.76318 6.20389 8.79333 6.32182 8.63799L6.88835 8.07147C7.26299 7.69662 7.22941 7.05274 6.81334 6.63667L4.99561 4.81937C4.57911 4.40329 3.93566 4.36951 3.56081 4.74457L2.32789 5.97749C1.71227 6.59289 1.72502 7.71064 2.36359 9.12462H2.3638ZM2.92905 6.57844L4.16219 5.34552C4.17069 5.33702 4.18769 5.33192 4.20957 5.33192C4.2576 5.33192 4.33049 5.35593 4.39487 5.42032L6.21217 7.23762C6.3061 7.33154 6.31417 7.44353 6.28719 7.47052L5.72066 8.03683C5.01644 8.74148 5.82755 10.2895 6.9929 11.4549C7.57324 12.035 8.21137 12.4987 8.7898 12.7599C9.7418 13.19 10.2142 12.9239 10.4107 12.7269L10.9773 12.1606C11.0045 12.1334 11.116 12.1417 11.2102 12.2354L13.0273 14.0529C13.1212 14.1468 13.1293 14.2586 13.1023 14.2856L11.8691 15.5187C11.527 15.8611 10.698 15.7929 9.65149 15.336C8.43896 14.8071 7.09384 13.8383 5.86389 12.6086C4.71171 11.4564 3.71849 10.0588 3.13836 8.77463C2.66959 7.73699 2.59117 6.91611 2.92884 6.57844H2.92905ZM16.4483 10.0666C16.4483 5.45751 12.6983 1.70752 8.08919 1.70752V2.55752C12.2297 2.55752 15.5983 5.92628 15.5983 10.0666H16.4483Z" fill="black"/>
<path d="M8.24683 4.0293V4.8793C11.1942 4.8793 13.5923 7.27715 13.5923 10.2245H14.4423C14.4423 6.80837 11.6628 4.0293 8.24683 4.0293Z" fill="black"/>
<path d="M11.4284 10.2244H12.2784C12.2784 8.00167 10.47 6.19287 8.24707 6.19287V7.04287C10.0013 7.04287 11.4284 8.47023 11.4284 10.2244Z" fill="black"/>
</svg>
