<svg width="32" height="32" viewBox="0 0 32 32" fill="none" xmlns="http://www.w3.org/2000/svg">
<path d="M10.5 26.5C10.5 25.137 11 23.903 11.806 23H5.042C3.364 23 2 24.57 2 26.5C2 28.43 3.364 30 5.042 30H11.806C11 29.097 10.5 27.863 10.5 26.5ZM5.042 28.5C4.191 28.5 3.5 27.603 3.5 26.5C3.5 25.397 4.191 24.5 5.042 24.5C5.892 24.5 6.583 25.397 6.583 26.5C6.583 27.603 5.892 28.5 5.042 28.5ZM26.958 23H23.5L22.138 20.276C22.054 20.107 21.88 20 21.691 20H19.64C19.315 20 19.076 20.306 19.155 20.621L19.75 23H15.042C13.364 23 12 24.57 12 26.5C12 28.43 13.364 30 15.042 30H26.958C28.636 30 30 28.43 30 26.5C30 24.57 28.636 23 26.958 23ZM15.042 28.5C14.191 28.5 13.5 27.603 13.5 26.5C13.5 25.397 14.191 24.5 15.042 24.5C15.892 24.5 16.583 25.397 16.583 26.5C16.583 27.603 15.892 28.5 15.042 28.5ZM21.25 27H19.75C19.336 27 19 26.664 19 26.25C19 25.836 19.336 25.5 19.75 25.5H21.25C21.664 25.5 22 25.836 22 26.25C22 26.664 21.664 27 21.25 27ZM27.25 27H24.75C24.336 27 24 26.664 24 26.25C24 25.836 24.336 25.5 24.75 25.5H27.25C27.664 25.5 28 25.836 28 26.25C28 26.664 27.664 27 27.25 27Z" fill="#EDF3F4"/>
<path d="M17.8291 21.5001H16.1341C14.7441 20.2991 14.5401 18.0181 16.0401 16.4431C19.0821 13.2511 21.2741 16.1361 20.9561 18.5001H19.6411C19.0211 18.5001 18.4461 18.7811 18.0641 19.2701C17.6821 19.7591 17.5501 20.3841 17.7011 20.9851L17.8291 21.5001Z" fill="#EDF3F4"/>
<path d="M18 11C18 7.013 15.145 9.572 15.003 4.05C12.688 4.28 10.606 5.306 9.027 6.846C9.31 9.497 14 8.113 14 11C14 12.449 10.55 13.096 10.922 15.016C11.424 17.61 9.193 18.505 9.017 21.5H6.647C4.995 19.444 4 16.837 4 14C4 7.383 9.383 2 16 2C22.617 2 28 7.383 28 14C28 16.837 27.005 19.444 25.353 21.5H24.428L23.793 20.229C25.165 18.519 26 16.359 26 14C26 11.768 25.256 9.712 24.016 8.046C23.245 8.204 22.247 8.812 22 10C21.741 11.245 18 13.25 18 11Z" fill="#EDF3F4"/>
</svg>
