<svg width="17" height="17" viewBox="0 0 17 17" fill="none" xmlns="http://www.w3.org/2000/svg">
<g clip-path="url(#clip0_580_991)">
<path d="M8.2445 14.3896C7.66503 14.7603 6.99353 14.9596 6.29885 14.9596C4.31132 14.9596 2.69412 13.3425 2.69412 11.3549C2.69412 9.36915 4.31132 7.75378 6.29885 7.75378C6.98092 7.75378 7.64024 7.94703 8.21241 8.3048C8.31871 6.77304 7.90201 6.02597 8.83755 5.07854C8.27733 4.45057 7.80998 3.99913 7.58504 3.79471H4.76054C4.58272 4.22286 4.29023 5.27207 5.36037 5.88215C5.52388 5.9754 5.58117 6.18371 5.48792 6.34723C5.39467 6.51091 5.18619 6.56803 5.02267 6.47461C4.42355 6.13309 4.11483 5.67733 3.98462 5.20626C3.80711 5.82204 3.8181 6.50708 4.39424 7.02495C4.53445 7.15083 4.54611 7.36647 4.42022 7.50651C4.29358 7.64687 4.07791 7.65784 3.93866 7.53215C3.25159 6.91488 3.11957 6.13411 3.24781 5.38435C1.8875 7.06501 0.235352 9.69357 0.235352 12.286C0.235352 14.7083 3.35652 15.9757 6.44006 15.9757C7.35623 15.9757 8.23909 15.8638 9.03171 15.6495C8.6453 15.3259 8.34371 14.8879 8.2445 14.3896ZM4.7221 3.11232H7.51361L8.8925 0.652387C8.93813 0.552312 8.8885 0.451568 8.86453 0.413937C8.84055 0.376472 8.77094 0.289551 8.63673 0.289551H3.66524C3.53103 0.289551 3.46143 0.376472 3.43745 0.413937C3.41347 0.451568 3.36385 0.552312 3.42113 0.674865L4.7221 3.11232ZM8.89283 6.6288C9.09382 9.13844 15.9069 9.09418 15.9191 6.53805C15.9191 5.41507 14.4075 4.572 12.4033 4.572C11.2215 4.572 10.1736 4.86457 9.52846 5.37463L9.52792 5.37527C9.1518 5.67147 8.8905 6.05218 8.8905 6.53289C8.8905 6.56403 8.89017 6.59766 8.89283 6.6288Z" fill="#E6F7FF"/>
<path d="M8.89404 10.5375V11.5731C8.9399 12.6655 10.4314 13.4835 12.4032 13.4835C14.3944 13.4835 15.8976 12.6519 15.919 11.5455V10.5342C15.1881 11.2358 13.9265 11.6716 12.4032 11.6716C10.8837 11.6716 9.62461 11.2373 8.89404 10.5375Z" fill="#E6F7FF"/>
<path d="M8.89397 13.0312V13.7182C8.93077 13.8391 8.6347 14.7673 9.97033 15.4543C10.6117 15.791 11.475 15.9758 12.4031 15.9758C14.4046 15.9758 15.9163 15.1339 15.9189 14.0174V13.0279C15.1881 13.7295 13.9264 14.1653 12.4031 14.1653C10.8836 14.1653 9.62454 13.7309 8.89397 13.0312ZM12.4031 9.17232C11.2097 9.17232 9.79965 8.88261 8.92753 8.07483C8.91703 8.06513 8.90426 8.05666 8.89397 8.04683C8.89397 8.15235 8.89397 9.11326 8.89397 9.07892C8.93983 10.1714 10.4313 10.9893 12.4031 10.9893C14.3943 10.9893 15.8975 10.1578 15.9189 9.05138V8.03418C15.0593 8.85965 13.6067 9.17232 12.4031 9.17232ZM8.21192 9.14701C7.67508 8.68726 7.00102 8.43582 6.29866 8.43582C4.68712 8.43582 3.37598 9.7453 3.37598 11.3548C3.37598 12.9664 4.68712 14.2775 6.29866 14.2775C7.00102 14.2775 7.67508 14.0259 8.21192 13.5662V11.5815C8.2113 11.5614 8.20759 11.542 8.20759 11.5217C8.20759 11.5141 8.21142 11.5077 8.21192 11.5002V9.14701ZM7.37801 10.3221L6.66999 11.4771H7.08295C7.17634 11.4771 7.23914 11.55 7.23914 11.6372C7.23914 11.727 7.17389 11.7933 7.08295 11.7933H6.48882V12.1768H7.08295C7.17669 12.1768 7.23914 12.2504 7.23914 12.3369C7.23914 12.4267 7.17389 12.493 7.08295 12.493H6.48882V12.8513C6.48882 12.9616 6.39757 13.041 6.29899 13.041C6.20108 13.041 6.10916 12.9623 6.10916 12.8513V12.493H5.51504C5.42405 12.493 5.35884 12.4267 5.35884 12.3369C5.35884 12.2506 5.42113 12.1768 5.51504 12.1768H6.10916V11.7933H5.51504C5.42405 11.7933 5.35884 11.727 5.35884 11.6372C5.35884 11.5501 5.4215 11.4771 5.51504 11.4771H5.928L5.21997 10.3221C5.16288 10.2302 5.18189 10.1275 5.24528 10.0692C5.32979 9.99074 5.48368 9.98198 5.56966 10.1323L6.29899 11.4096L7.02833 10.1323C7.1145 9.98165 7.26886 9.99136 7.35271 10.0692C7.41584 10.1273 7.43531 10.2298 7.37801 10.3221Z" fill="#E6F7FF"/>
</g>
<defs>
<clipPath id="clip0_580_991">
<rect width="16" height="16" fill="white" transform="translate(0.0771484 0.132812)"/>
</clipPath>
</defs>
</svg>
