<svg width="16" height="16" viewBox="0 0 16 16" fill="none" xmlns="http://www.w3.org/2000/svg">
<path d="M3.3999 1.20039V14.7754C3.3999 14.8754 3.4749 14.9754 3.5999 14.9754H7.7499V14.4004H4.7499C4.5999 14.4004 4.4999 14.2754 4.4999 14.1504C4.4999 14.0254 4.6249 13.9004 4.7499 13.9004H7.7499V1.02539H3.5999C3.4999 1.02539 3.3999 1.10039 3.3999 1.20039ZM7.2749 9.55039C7.2749 9.70039 7.1499 9.80039 7.0249 9.80039C6.8999 9.80039 6.7749 9.67539 6.7749 9.55039V9.22539C6.7749 9.07539 6.8999 8.97539 7.0249 8.97539C7.1499 8.97539 7.2749 9.10039 7.2749 9.22539V9.55039ZM7.2749 6.45039V8.07539C7.2749 8.22539 7.1499 8.32539 7.0249 8.32539C6.8999 8.32539 6.7749 8.20039 6.7749 8.07539V6.45039C6.7749 6.30039 6.8999 6.20039 7.0249 6.20039C7.1499 6.20039 7.2749 6.32539 7.2749 6.45039ZM4.0249 2.75039C4.0249 2.35039 4.3499 2.05039 4.7249 2.05039H6.5749C6.7249 2.05039 6.8249 2.17539 6.8249 2.30039C6.8249 2.45039 6.6999 2.55039 6.5749 2.55039H4.7499C4.6499 2.55039 4.5499 2.62539 4.5499 2.75039V7.05039C4.5499 7.20039 4.4249 7.30039 4.2999 7.30039C4.1499 7.30039 4.0499 7.17539 4.0499 7.05039V2.75039H4.0249ZM12.3999 1.02539H8.2499V13.9004H11.2499C11.3499 13.9004 11.4499 13.8254 11.4499 13.7004V2.30039C11.4499 2.15039 11.5749 2.05039 11.6999 2.05039C11.8249 2.05039 11.9499 2.17539 11.9499 2.30039V13.6754C11.9499 14.0754 11.6249 14.3754 11.2499 14.3754H8.2499V14.9504H12.3999C12.4999 14.9504 12.5999 14.8754 12.5999 14.7504V1.20039C12.5999 1.10039 12.4999 1.02539 12.3999 1.02539ZM9.2499 9.55039C9.2499 9.70039 9.1249 9.80039 8.9999 9.80039C8.8749 9.80039 8.7499 9.67539 8.7499 9.55039V9.22539C8.7499 9.07539 8.8749 8.97539 8.9999 8.97539C9.1249 8.97539 9.2499 9.10039 9.2499 9.22539V9.55039ZM9.2499 8.07539C9.2499 8.22539 9.1249 8.32539 8.9999 8.32539C8.8749 8.32539 8.7499 8.20039 8.7499 8.07539V6.45039C8.7499 6.30039 8.8749 6.20039 8.9999 6.20039C9.1249 6.20039 9.2499 6.32539 9.2499 6.45039V8.07539Z" fill="#E6F7FF"/>
</svg>
