<svg width="20" height="20" viewBox="0 0 20 20" fill="none" xmlns="http://www.w3.org/2000/svg">
<g clip-path="url(#clip0_631_67)">
<path d="M16.0345 14.9662C17.4326 12.7084 18.656 9.34664 18.7498 4.45081C18.7518 4.30746 18.7013 4.16834 18.6078 4.05961C18.5144 3.95088 18.3845 3.88004 18.2425 3.86041C18.1903 3.85301 12.9951 3.07786 10.4513 0.200339C10.3967 0.138887 10.3299 0.0893985 10.2552 0.0549806C10.1806 0.0205626 10.0996 0.00195928 10.0173 0.000339062C10.0109 0.000113021 10.0045 0 9.99805 0C9.91895 0.000732958 9.84079 0.017244 9.76814 0.0485658C9.6955 0.0798877 9.62984 0.125391 9.575 0.182409C9.54243 0.216255 6.26721 3.56915 2.19487 3.56915C2.08956 3.56915 1.98434 3.56692 1.878 3.56234C1.86819 3.56185 1.85843 3.56161 1.84872 3.56161C1.69799 3.56163 1.553 3.61938 1.44354 3.72299C1.33407 3.82661 1.26846 3.96822 1.26018 4.11872C1.21064 6.34216 1.47927 8.56125 2.05791 10.7086C2.62178 12.7839 3.4574 14.5697 4.53805 16.037L4.53838 16.0363C4.47051 13.8345 5.52172 12.0501 6.57229 10.5898C6.83313 10.2269 7.12511 9.86603 7.40755 9.51706L7.43029 9.48898C7.12009 9.25704 6.88752 8.93649 6.76326 8.56964C6.71118 8.40713 6.70439 8.2335 6.74364 8.06743C6.78288 7.90135 6.86667 7.74912 6.98598 7.62712C7.1053 7.50511 7.25562 7.41795 7.42078 7.37501C7.58594 7.33207 7.75968 7.33498 7.92331 7.38342C7.85876 7.17762 7.7722 6.97938 7.66513 6.79214C7.65101 6.77215 7.63446 6.75003 7.61752 6.7273C7.46928 6.52833 7.19348 6.15815 7.30319 5.67795C7.33417 5.54565 7.3928 5.42139 7.47522 5.31335C7.55765 5.20532 7.662 5.11594 7.78142 5.05111C7.90084 4.98627 8.03263 4.94743 8.16812 4.93715C8.30362 4.92687 8.43976 4.94538 8.5676 4.99145C8.7448 5.06155 8.90922 5.16044 9.0542 5.28411C9.07747 5.30242 9.10349 5.32286 9.12722 5.34042L9.12813 5.3395C9.14759 5.31875 9.16933 5.28823 9.19352 5.2568C9.34603 5.05798 9.62992 4.6878 10.1018 4.6878C10.2594 4.68823 10.414 4.73108 10.5494 4.81185C10.7251 4.92398 10.871 5.07702 10.9747 5.25787C10.979 5.26443 10.9838 5.27175 10.9887 5.27923C11.0503 5.24667 11.1101 5.21087 11.1679 5.17196C11.2316 5.13076 11.2972 5.08865 11.3666 5.04882C11.5871 4.91481 11.8389 4.84089 12.0968 4.83443C12.3664 4.83016 12.6271 4.93082 12.8239 5.11517C13.0207 5.29953 13.1381 5.55313 13.1513 5.82244C13.1435 6.11968 13.0409 6.40666 12.8586 6.64153C12.8293 6.68329 12.8023 6.72664 12.7778 6.77138C12.624 7.09762 12.4477 7.91839 12.3464 8.49425C12.6062 8.8523 12.8853 9.19607 13.1822 9.52407C13.4717 9.85595 13.7712 10.1991 14.0523 10.5893C14.9274 11.8058 15.8043 13.2463 16.0342 14.9658L16.0345 14.9662Z" fill="#EDF3F4"/>
<path d="M5.16868 16.2095C5.32181 18.6626 7.53587 19.8626 9.55306 19.9782C10.0589 20.0079 10.566 20.0079 11.0718 19.9782C13.089 19.8626 15.3031 18.6626 15.4562 16.2095C15.5859 14.161 14.6624 12.5079 13.5452 10.9548C13.2564 10.554 12.942 10.2002 12.6317 9.84386H7.94696C7.64661 10.2152 7.34607 10.5842 7.07962 10.9548C5.96243 12.5079 5.03899 14.161 5.16868 16.2095ZM8.96243 15.4673C9.04118 15.4415 9.12692 15.4477 9.20116 15.4845C9.27539 15.5213 9.33219 15.5859 9.35931 15.6642C9.40718 15.7963 9.48187 15.9171 9.57867 16.019C9.67547 16.121 9.79229 16.2018 9.92181 16.2564C10.0548 16.3188 10.1992 16.3529 10.3461 16.3567C10.4929 16.3604 10.6389 16.3337 10.7749 16.2782C11.0031 16.1782 11.2109 15.9407 11.1218 15.6579C11.0249 15.3501 10.7359 15.2501 10.2718 15.1142C9.83743 14.9876 9.34524 14.8439 9.06868 14.3767C8.95223 14.1843 8.89092 13.9636 8.89147 13.7387C8.89202 13.5139 8.95441 13.2935 9.07181 13.1017C9.17698 12.945 9.31454 12.8128 9.47519 12.7139C9.63584 12.6149 9.81585 12.5516 10.0031 12.5282C10.0012 12.519 10.0002 12.5096 9.99993 12.5001V12.0329C9.99993 11.95 10.0329 11.8706 10.0915 11.8119C10.1501 11.7533 10.2295 11.7204 10.3124 11.7204C10.3953 11.7204 10.4748 11.7533 10.5334 11.8119C10.592 11.8706 10.6249 11.95 10.6249 12.0329V12.5001C10.6247 12.5085 10.6236 12.5169 10.6218 12.5251C10.6468 12.5298 10.6702 12.5329 10.6921 12.5376C10.9647 12.5968 11.2168 12.7272 11.4226 12.9155C11.6285 13.1038 11.7808 13.3432 11.864 13.6095C11.886 13.6895 11.8752 13.7749 11.8342 13.847C11.7932 13.9191 11.7252 13.9719 11.6452 13.9939C11.5653 14.0158 11.4798 14.0051 11.4078 13.9641C11.3357 13.9231 11.2828 13.8551 11.2609 13.7751C11.2091 13.6209 11.1188 13.4825 10.9984 13.3732C10.8781 13.2638 10.7318 13.187 10.5734 13.1501C10.2234 13.0829 9.78431 13.1454 9.59837 13.4376C9.54384 13.5325 9.51592 13.6404 9.51757 13.7498C9.51922 13.8593 9.55038 13.9663 9.60774 14.0595C9.75774 14.3126 10.0765 14.4064 10.4468 14.5142C10.9234 14.6532 11.5171 14.8282 11.7187 15.472C11.9124 16.0939 11.5171 16.636 11.0265 16.8517C10.8979 16.9057 10.763 16.943 10.6249 16.9626V17.347C10.6249 17.4299 10.592 17.5093 10.5334 17.568C10.4748 17.6266 10.3953 17.6595 10.3124 17.6595C10.2295 17.6595 10.1501 17.6266 10.0915 17.568C10.0329 17.5093 9.99993 17.4299 9.99993 17.347V16.9376C9.88648 16.9111 9.77562 16.8745 9.66868 16.8282C9.45982 16.7385 9.27178 16.6065 9.11636 16.4406C8.96094 16.2747 8.84151 16.0784 8.76556 15.8642C8.73941 15.7854 8.74543 15.6995 8.7823 15.6252C8.81918 15.5509 8.88392 15.4941 8.96243 15.4673ZM8.28274 8.54542C8.13114 8.47192 8.01324 8.34341 7.95306 8.18604C7.92751 8.10743 7.87186 8.04214 7.79829 8.00446C7.72472 7.96678 7.63922 7.95978 7.5605 7.98499C7.48178 8.01019 7.41625 8.06556 7.37825 8.13896C7.34025 8.21237 7.33288 8.29784 7.35774 8.37667C7.41346 8.53735 7.50078 8.68525 7.61456 8.81164C7.72834 8.93804 7.86628 9.04037 8.02024 9.11261C8.15446 9.17278 8.29843 9.20825 8.44524 9.21729L8.444 9.21886H12.108C11.9621 9.0338 11.821 8.84188 11.689 8.63604C11.689 8.63604 11.9312 7.10168 12.214 6.50167C12.3171 6.28604 12.5312 6.09073 12.5265 5.83604C12.5147 5.73101 12.4641 5.63417 12.3846 5.56451C12.3051 5.49485 12.2025 5.45739 12.0968 5.45948C11.9484 5.46717 11.8043 5.51233 11.6781 5.59073C11.4281 5.73448 11.2374 5.91417 10.9593 5.91417C10.9073 5.9143 10.8554 5.90853 10.8046 5.89698C10.7827 5.89229 10.7609 5.88604 10.7406 5.87979C10.5046 5.81261 10.4359 5.47042 10.2343 5.35167C9.94524 5.18292 9.73587 5.61104 9.57493 5.77667C9.5211 5.8414 9.45473 5.89456 9.37981 5.93296C9.30489 5.97136 9.22297 5.9942 9.13899 6.00011C9.06635 5.99924 8.99481 5.98216 8.92962 5.95011C8.72493 5.85636 8.57337 5.65948 8.35618 5.57979C8.3191 5.56638 8.27998 5.55951 8.24056 5.55948C8.16473 5.55886 8.09094 5.58404 8.03131 5.63089C7.97169 5.67774 7.92976 5.74347 7.91243 5.81729C7.85931 6.05011 8.05149 6.25636 8.17649 6.43292C8.17649 6.43292 8.58274 7.01104 8.85774 8.54386C8.67238 8.61284 8.46848 8.6134 8.28274 8.54542ZM9.13898 6.62448C9.30697 6.62018 9.47227 6.58129 9.62457 6.51025C9.77686 6.43921 9.91287 6.33754 10.0241 6.21159C10.0433 6.19185 10.0615 6.17186 10.079 6.15174C10.2047 6.30906 10.3755 6.4241 10.5685 6.48138C10.6022 6.491 10.6362 6.49972 10.6705 6.50727C10.9821 6.57777 11.3088 6.53126 11.5884 6.37658C11.3384 7.00407 11.146 8.08758 11.0876 8.43924H9.47422C9.37195 7.81284 9.20134 7.19954 8.96542 6.61032C9.0228 6.61973 9.08084 6.62447 9.13898 6.62448Z" fill="#EDF3F4"/>
</g>
<defs>
<clipPath id="clip0_631_67">
<rect width="20" height="20" fill="white"/>
</clipPath>
</defs>
</svg>
