<svg width="18" height="19" viewBox="0 0 18 19" fill="none" xmlns="http://www.w3.org/2000/svg">
<path d="M17.0033 6.25486C17.0036 5.95837 16.9342 5.66596 16.8007 5.4012C16.6673 5.13643 16.4735 4.90672 16.235 4.73055C15.9966 4.55439 15.72 4.43671 15.4277 4.38698C15.1355 4.33726 14.8356 4.35689 14.5523 4.44429C14.2689 4.53169 14.0101 4.68442 13.7966 4.89017C13.5831 5.09592 13.421 5.34893 13.3232 5.62883C13.2254 5.90873 13.1947 6.20769 13.2336 6.50162C13.2725 6.79554 13.3799 7.07622 13.5472 7.32104L11.736 9.55211L10.1073 5.80864C10.4043 5.55864 10.6173 5.22335 10.7174 4.84822C10.8174 4.47309 10.7997 4.07627 10.6667 3.71153C10.5336 3.3468 10.2916 3.0318 9.97352 2.80923C9.65541 2.58666 9.27655 2.46729 8.8883 2.46729C8.50006 2.46729 8.1212 2.58666 7.80308 2.80923C7.48497 3.0318 7.24298 3.3468 7.10992 3.71153C6.97686 4.07627 6.95916 4.47309 7.05923 4.84822C7.1593 5.22335 7.37229 5.55864 7.66933 5.80864L6.0447 9.55008L4.23348 7.31901C4.46615 6.97809 4.58102 6.57048 4.5606 6.15824C4.54018 5.746 4.38558 5.35173 4.12036 5.03547C3.85514 4.71922 3.49383 4.49832 3.09144 4.4064C2.68906 4.31449 2.26767 4.3566 1.89144 4.52633C1.5152 4.69606 1.20475 4.9841 1.00737 5.34659C0.809978 5.70907 0.73647 6.12614 0.798036 6.53427C0.859603 6.94239 1.05287 7.31922 1.34841 7.60735C1.64394 7.89547 2.02554 8.07912 2.4351 8.13031L3.41407 14.0048C3.45616 14.2573 3.58646 14.4868 3.78181 14.6523C3.97716 14.8178 4.22489 14.9087 4.48093 14.9087H13.2997C13.5558 14.9087 13.8035 14.8178 13.9989 14.6523C14.1942 14.4868 14.3245 14.2573 14.3666 14.0048L15.3449 8.13301C15.8027 8.07583 16.2239 7.85342 16.5293 7.50757C16.8347 7.16172 17.0032 6.71624 17.0033 6.25486ZM8.89033 3.55053C9.05079 3.55053 9.20765 3.59811 9.34106 3.68726C9.47448 3.77641 9.57847 3.90311 9.63987 4.05136C9.70128 4.1996 9.71734 4.36273 9.68604 4.5201C9.65474 4.67748 9.57747 4.82204 9.46401 4.9355C9.35054 5.04897 9.20598 5.12623 9.04861 5.15754C8.89123 5.18884 8.72811 5.17278 8.57986 5.11137C8.43162 5.04997 8.30491 4.94598 8.21576 4.81256C8.12661 4.67914 8.07903 4.52229 8.07903 4.36183C8.07903 4.14666 8.16451 3.9403 8.31666 3.78815C8.4688 3.63601 8.67516 3.55053 8.89033 3.55053ZM1.85908 6.25486C1.85908 6.0944 1.90666 5.93754 1.99581 5.80412C2.08496 5.67071 2.21166 5.56672 2.35991 5.50532C2.50815 5.44391 2.67128 5.42784 2.82866 5.45915C2.98603 5.49045 3.13059 5.56772 3.24405 5.68118C3.35752 5.79465 3.43478 5.9392 3.46609 6.09658C3.49739 6.25396 3.48133 6.41708 3.41992 6.56533C3.35852 6.71357 3.25453 6.84028 3.12111 6.92943C2.98769 7.01857 2.83084 7.06616 2.67038 7.06616C2.45521 7.06616 2.24885 6.98068 2.0967 6.82853C1.94456 6.67638 1.85908 6.47003 1.85908 6.25486ZM13.2997 13.827H4.48093L3.53982 8.18304L5.76616 10.9198C5.81658 10.9828 5.88046 11.0337 5.9531 11.0688C6.02575 11.1039 6.10533 11.1223 6.186 11.1226C6.21042 11.1228 6.23482 11.1212 6.25902 11.1179C6.35116 11.1054 6.43852 11.0693 6.51266 11.0132C6.58679 10.957 6.6452 10.8827 6.68225 10.7975L8.66317 6.24066C8.81402 6.25958 8.96664 6.25958 9.11749 6.24066L11.0984 10.7975C11.1355 10.8827 11.1939 10.957 11.268 11.0132C11.3421 11.0693 11.4295 11.1054 11.5216 11.1179C11.5458 11.1212 11.5702 11.1228 11.5947 11.1226C11.6753 11.1223 11.7549 11.1039 11.8276 11.0688C11.9002 11.0337 11.9641 10.9828 12.0145 10.9198L14.2408 8.18034L13.2997 13.827ZM15.1103 7.06616C14.9498 7.06616 14.793 7.01857 14.6595 6.92943C14.5261 6.84028 14.4221 6.71357 14.3607 6.56533C14.2993 6.41708 14.2833 6.25396 14.3146 6.09658C14.3459 5.9392 14.4231 5.79465 14.5366 5.68118C14.6501 5.56772 14.7946 5.49045 14.952 5.45915C15.1094 5.42784 15.2725 5.44391 15.4208 5.50532C15.569 5.56672 15.6957 5.67071 15.7849 5.80412C15.874 5.93754 15.9216 6.0944 15.9216 6.25486C15.9216 6.47003 15.8361 6.67638 15.684 6.82853C15.5318 6.98068 15.3255 7.06616 15.1103 7.06616Z" fill="white"/>
</svg>
