<svg width="102" height="102" viewBox="0 0 102 102" fill="none" xmlns="http://www.w3.org/2000/svg">
<g clip-path="url(#clip0_615_59)">
<path d="M101.992 76.1161C101.992 76.6741 101.975 77.8861 101.941 78.8211C101.897 81.0264 101.717 83.2269 101.403 85.4101C101.035 87.3243 100.414 89.1809 99.556 90.9311C97.6644 94.6594 94.6333 97.6874 90.903 99.5751C89.1429 100.435 87.2757 101.056 85.351 101.422C83.1841 101.731 81.0004 101.907 78.812 101.95C77.876 101.983 76.664 102 76.112 102L25.889 101.992C25.331 101.992 24.12 101.975 23.184 101.941C20.9787 101.897 18.7782 101.717 16.595 101.403C14.6808 101.035 12.8242 100.414 11.074 99.5561C7.34234 97.6661 4.31102 94.6347 2.421 90.9031C1.56213 89.1428 0.942308 87.2756 0.578 85.3511C0.269527 83.1842 0.0932012 81.0005 0.05 78.8121C0.0202449 77.9124 0.00357652 77.0123 0 76.1121L0.008 25.8881C0.008 25.3301 0.025 24.1181 0.059 23.1831C0.102937 20.9778 0.282611 18.7773 0.597 16.5941C0.964753 14.6799 1.58588 12.8232 2.444 11.0731C4.33442 7.34222 7.36569 4.31166 11.097 2.42209C12.8571 1.56163 14.7243 0.940131 16.649 0.574094C18.8159 0.265518 20.9996 0.0891913 23.188 0.0460938C24.124 0.0130938 25.336 -0.00390625 25.888 -0.00390625L76.116 0.00809377C76.675 0.00809377 77.886 0.0250937 78.821 0.0590937C81.0263 0.103046 83.2268 0.282719 85.41 0.597094C87.3242 0.964847 89.1809 1.58598 90.931 2.44409C94.6594 4.3356 97.6874 7.36677 99.575 11.0971C100.436 12.8572 101.057 14.7244 101.423 16.6491C101.731 18.816 101.908 20.9997 101.951 23.1881C101.984 24.1241 102.001 25.3361 102.001 25.8881L101.993 76.1111L101.992 76.1161Z" fill="url(#paint0_linear_615_59)"/>
<path d="M78.02 24.131C71.7476 17.8569 63.4088 14.0761 54.5563 13.4926C45.7038 12.9091 36.9409 15.5627 29.8993 20.9592C22.8576 26.3558 18.0172 34.1276 16.2792 42.8274C14.5413 51.5272 16.0242 60.5622 20.452 68.25L15.263 87.198L34.653 82.113C40.0162 85.0331 46.0254 86.5633 52.132 86.564H52.147C59.3802 86.5638 66.451 84.419 72.4654 80.4009C78.4799 76.3827 83.168 70.6716 85.9372 63.9895C88.7064 57.3074 89.4322 49.9542 88.023 42.8596C86.6138 35.765 83.1328 29.2475 78.02 24.131ZM52.15 80.388H52.138C46.6938 80.3888 41.3496 78.9257 36.665 76.152L35.555 75.493L24.049 78.51L27.12 67.295L26.397 66.145C22.8147 60.436 21.2312 53.6985 21.8953 46.9915C22.5594 40.2845 25.4335 33.9883 30.0658 29.0928C34.6981 24.1972 40.826 20.9799 47.4861 19.9465C54.1462 18.913 60.9609 20.1222 66.8589 23.3838C72.7569 26.6454 77.4039 31.7746 80.0692 37.965C82.7345 44.1553 83.2671 51.0559 81.5833 57.582C79.8994 64.1081 76.0946 69.8896 70.7669 74.0176C65.4392 78.1456 58.8908 80.3862 52.151 80.387L52.15 80.388ZM68.82 57.627C67.906 57.17 63.413 54.959 62.575 54.654C61.737 54.349 61.128 54.197 60.519 55.111C59.91 56.025 58.158 58.084 57.625 58.693C57.092 59.302 56.559 59.379 55.645 58.922C52.9505 57.8487 50.4636 56.3141 48.296 54.387C46.2979 52.5401 44.5846 50.4073 43.212 48.058C42.679 47.143 43.155 46.649 43.612 46.193C44.023 45.784 44.526 45.126 44.983 44.593C45.3589 44.1313 45.6667 43.618 45.897 43.069C46.0184 42.817 46.075 42.5387 46.0617 42.2593C46.0484 41.98 45.9657 41.7083 45.821 41.469C45.593 41.012 43.765 36.515 43.003 34.686C42.261 32.904 41.503 33.145 40.947 33.118C40.3633 33.0931 39.7792 33.0824 39.195 33.086C38.7319 33.0981 38.2764 33.2059 37.857 33.4026C37.4376 33.5993 37.0634 33.8807 36.758 34.229C35.7245 35.2075 34.9062 36.3906 34.3552 37.7029C33.8043 39.0152 33.5327 40.4279 33.558 41.851C33.558 46.351 36.833 50.692 37.29 51.302C37.747 51.912 43.734 61.14 52.902 65.102C54.6035 65.835 56.3426 66.4775 58.112 67.027C59.9764 67.5934 61.9473 67.7173 63.868 67.389C65.624 67.127 69.275 65.179 70.037 63.045C70.6348 61.68 70.82 60.17 70.57 58.701C70.341 58.32 69.732 58.091 68.818 57.634L68.82 57.627Z" fill="white"/>
</g>
<defs>
<linearGradient id="paint0_linear_615_59" x1="51.0005" y1="-0.00390625" x2="51.0005" y2="102" gradientUnits="userSpaceOnUse">
<stop stop-color="#61FD7D"/>
<stop offset="1" stop-color="#2BB826"/>
</linearGradient>
<clipPath id="clip0_615_59">
<rect width="102" height="102" fill="white"/>
</clipPath>
</defs>
</svg>
